<svg fill="none" xmlns="http://www.w3.org/2000/svg"><path fill-rule="evenodd" clip-rule="evenodd" d="M17.27 4.034C16.847 4 16.302 4 15.5 4h-2.531a1 1 0 1 1 0-2h2.57c.755 0 1.378 0 1.886.04.528.041 1.017.13 1.479.356a3.76 3.76 0 0 1 1.673 1.61c.242.456.337.94.381 1.456C21 5.955 21 6.558 21 7.278v9.444c0 .72 0 1.323-.042 1.816-.044.516-.139 1-.381 1.457a3.76 3.76 0 0 1-1.673 1.609c-.462.226-.95.315-1.479.356-.508.04-1.131.04-1.886.04H9.46c-.753 0-1.377 0-1.885-.04-.528-.041-1.017-.13-1.479-.356a3.76 3.76 0 0 1-1.673-1.61c-.242-.456-.337-.94-.381-1.456C4 18.045 4 17.442 4 16.722V14.25a1 1 0 1 1 2 0v2.43c0 .773 0 1.29.035 1.689.032.385.09.567.155.688.168.317.44.582.785.75.14.069.346.127.756.16.42.032.966.033 1.769.033h6c.803 0 1.348 0 1.77-.034.41-.032.615-.09.755-.159a1.76 1.76 0 0 0 .785-.75c.064-.12.123-.303.155-.688.034-.398.035-.916.035-1.689V7.32c0-.773 0-1.29-.035-1.689-.032-.385-.09-.567-.155-.688a1.76 1.76 0 0 0-.785-.75c-.14-.069-.346-.127-.756-.16ZM11 9.3a1 1 0 0 1 1-1h4.25a1 1 0 1 1 0 2H12a1 1 0 0 1-1-1Zm-3.25 3.6a1 1 0 0 1 1-1h7.5a1 1 0 1 1 0 2h-7.5a1 1 0 0 1-1-1Zm0 3.6a1 1 0 0 1 1-1h7.5a1 1 0 1 1 0 2h-7.5a1 1 0 0 1-1-1Z" fill="currentColor"></path><path d="M4.828 4.553c0-.28.23-.503.504-.561a2.625 2.625 0 0 0 1.41-.839 3.198 3.198 0 0 0 .764-1.703c.032-.247.231-.45.48-.45.25 0 .448.203.481.45.085.641.35 1.24.763 1.703.388.436.88.726 1.41.839.275.058.504.28.504.56s-.23.503-.504.561a2.625 2.625 0 0 0-1.41.839 3.198 3.198 0 0 0-.763 1.703c-.033.247-.231.45-.48.45-.25 0-.449-.203-.481-.45a3.198 3.198 0 0 0-.764-1.703 2.625 2.625 0 0 0-1.41-.839c-.274-.058-.504-.28-.504-.56ZM3 8.895c0-.166.136-.298.299-.333.314-.067.606-.238.835-.497.245-.274.402-.629.452-1.009.02-.146.138-.267.285-.267.148 0 .266.12.285.267.05.38.208.735.452 1.01.23.258.522.43.836.496.163.035.299.167.299.333s-.136.297-.299.332a1.556 1.556 0 0 0-.836.497c-.244.275-.401.63-.452 1.01-.02.146-.137.266-.285.266-.147 0-.265-.12-.285-.267a1.895 1.895 0 0 0-.452-1.009 1.556 1.556 0 0 0-.835-.497C3.136 9.192 3 9.061 3 8.895Z" fill="currentColor"></path></svg>