<svg viewBox="0 0 24 24" fill="none" xmlns="http://www.w3.org/2000/svg"><g clip-path="url(#clip0_2283_2184)"><path fill-rule="evenodd" clip-rule="evenodd" d="M18.858 7.54026L11.8365 16.6302C9.97178 15.101 7.38127 14.6274 4.13044 15.1151C7.33185 15.798 10.131 17.3003 12.3422 20L21 8.31332C20.6624 7.84976 19.9484 7.59217 18.858 7.54026ZM8.45268 10.874C9.45624 9.0997 11.5144 6.57178 13.4721 4C9.45864 5.01178 5.9821 8.33164 3 12.8892C4.76271 11.8611 6.45197 11.1599 8.45268 10.874ZM13.9489 5.59247L8.8018 12.487C6.58926 12.434 4.87731 13.0552 3.47601 14.0948C6.54011 13.3844 9.43593 13.1993 11.8662 14.4659L18.5604 5.40705C17.087 5.23662 15.5406 5.3321 13.9489 5.59247Z" fill="currentColor"></path></g><defs><clipPath id="clip0_2283_2184"><rect width="24" height="24" fill="currentColor"></rect></clipPath></defs></svg>