<svg viewBox="0 0 24 24" fill="currentColor" xmlns="http://www.w3.org/2000/svg"><path fill="currentColor" opacity="0.2" d="M21 12C21 16.9706 16.9706 21 12 21C7.02944 21 3 16.9706 3 12C3 7.02944 7.02944 3 12 3C16.9706 3 21 7.02944 21 12ZM4.8 12C4.8 15.9764 8.02355 19.2 12 19.2C15.9764 19.2 19.2 15.9764 19.2 12C19.2 8.02355 15.9764 4.8 12 4.8C8.02355 4.8 4.8 8.02355 4.8 12Z"></path><path fill="currentColor" d="M12 20.1C12 20.5971 11.5961 21.0047 11.1015 20.955C9.87498 20.832 8.68347 20.4579 7.60241 19.8525C6.25885 19.1 5.13083 18.0155 4.32624 16.7025C3.52164 15.3895 3.06739 13.892 3.00694 12.3533C2.94648 10.8146 3.28184 9.28614 3.98094 7.91408C4.68004 6.54203 5.71949 5.37229 6.99987 4.51677C8.28025 3.66125 9.75872 3.14856 11.2939 3.02774C12.829 2.90693 14.3695 3.18202 15.7679 3.82671C16.8932 4.34545 17.8962 5.08952 18.7166 6.00945C19.0475 6.3804 18.9552 6.94678 18.553 7.23894C18.1509 7.5311 17.5919 7.4373 17.2518 7.07474C16.6189 6.39982 15.8597 5.8511 15.0144 5.46137C13.8956 4.94562 12.6632 4.72554 11.4351 4.82219C10.207 4.91885 9.0242 5.329 7.9999 6.01342C6.97559 6.69783 6.14403 7.63362 5.58475 8.73127C5.02547 9.82891 4.75719 11.0517 4.80555 12.2827C4.85392 13.5136 5.21732 14.7116 5.86099 15.762C6.50466 16.8124 7.40708 17.68 8.48193 18.282C9.29413 18.7368 10.1843 19.0285 11.1023 19.1438C11.5955 19.2058 12 19.6029 12 20.1Z"></path></svg>